<?xml version="1.0" standalone="no"?>
<!DOCTYPE svg PUBLIC "-//W3C//DTD SVG 20010904//EN"
 "http://www.w3.org/TR/2001/REC-SVG-20010904/DTD/svg10.dtd">
<svg version="1.0" xmlns="http://www.w3.org/2000/svg"
 width="512.000000pt" height="512.000000pt" viewBox="0 0 512.000000 512.000000"
 preserveAspectRatio="xMidYMid meet">

<g transform="translate(0.000000,512.000000) scale(0.100000,-0.100000)"
fill="#000000" stroke="none">
<path d="M2520 4614 c-8 -4 -519 -200 -1135 -436 -616 -237 -1138 -440 -1160
-453 -56 -32 -138 -121 -170 -186 -57 -111 -55 -50 -55 -1435 0 -1411 -3
-1334 62 -1436 36 -58 87 -99 165 -136 l58 -27 360 0 360 0 5 1035 c6 1164 -1
1073 82 1128 l42 27 1426 0 1426 0 42 -27 c83 -55 76 36 82 -1128 l5 -1035
360 0 c354 0 361 0 410 23 115 53 183 126 216 233 18 58 19 116 19 1342 0
1386 2 1325 -55 1436 -32 65 -114 154 -170 186 -61 35 -2282 887 -2324 891
-20 2 -43 1 -51 -2z"/>
<path d="M1370 2150 l0 -180 1190 0 1190 0 0 180 0 180 -1190 0 -1190 0 0
-180z"/>
<path d="M1370 1415 l0 -185 1190 0 1190 0 0 185 0 185 -1190 0 -1190 0 0
-185z"/>
<path d="M1370 685 l0 -185 1190 0 1190 0 0 185 0 185 -1190 0 -1190 0 0 -185z"/>
</g>
</svg>
